<svg width="280" height="56" viewBox="0 0 1440 276" fill="none" xmlns="http://www.w3.org/2000/svg" style="background: transparent;">
    <path d="M375.38 70.4H471.27V95.83H403.1V122.28H463.01V147.88H403.1V175.2H472.13V200.62H375.21V70.4H375.38Z" fill="white"/>
    <path d="M480.74 70.4H508.63V127.26L560.11 70.4H593.85L542.03 125.55L596.09 200.62H562.52L523.09 145.13L508.46 160.76V200.62H480.57V70.4H480.74Z" fill="white"/>
    <path d="M596.95 70.4H624.84V127.26L676.49 70.4H710.24L658.41 125.55L712.47 200.62H679.07L639.82 145.13L625.01 160.76V200.62H597.12V70.4H596.95Z" fill="white"/>
    <path d="M697.67 135.85V135.51C697.67 98.57 726.07 68.17 765.33 68.17C804.59 68.17 832.64 98.23 832.64 135.17V135.51C832.64 172.45 804.24 202.86 764.98 202.86C725.72 202.86 697.67 172.79 697.67 135.86V135.85ZM803.55 135.85V135.51C803.55 113.18 787.55 94.45 764.98 94.45C742.41 94.45 726.76 112.66 726.76 135V135.34C726.76 157.67 742.76 176.4 765.33 176.4C787.71 176.4 803.55 158.19 803.55 135.85V135.85Z" fill="white"/>
    <path d="M375.38 70.4H471.27V95.83H403.1V122.28H463.01V147.88H403.1V175.2H472.13V200.62H375.21V70.4H375.38Z" fill="white"/>
    <path d="M480.74 70.4H508.63V127.26L560.11 70.4H593.85L542.03 125.55L596.09 200.62H562.52L523.09 145.13L508.46 160.76V200.62H480.57V70.4H480.74Z" fill="white"/>
    <path d="M596.95 70.4H624.84V127.26L676.49 70.4H710.24L658.41 125.55L712.47 200.62H679.07L639.82 145.13L625.01 160.76V200.62H597.12V70.4H596.95Z" fill="white"/>
    <path d="M697.67 135.85V135.51C697.67 98.57 726.07 68.17 765.33 68.17C804.59 68.17 832.64 98.23 832.64 135.17V135.51C832.64 172.45 804.24 202.86 764.98 202.86C725.72 202.86 697.67 172.79 697.67 135.86V135.85ZM803.55 135.85V135.51C803.55 113.18 787.55 94.45 764.98 94.45C742.41 94.45 726.76 112.66 726.76 135V135.34C726.76 157.67 742.76 176.4 765.33 176.4C787.71 176.4 803.55 158.19 803.55 135.85Z" fill="white"/>
    <path d="M903.23 202.86C893.23 202.86 884.12 201.14 876.37 197.53C868.764 194.178 861.949 189.261 856.37 183.1C850.851 176.873 846.583 169.642 843.8 161.8C840.873 153.465 839.418 144.684 839.5 135.85V135.51C839.434 126.831 840.952 118.214 843.98 110.08C846.815 102.175 851.14 94.8863 856.72 88.61C862.34 82.3618 869.136 77.2819 876.72 73.66C884.46 69.88 893.07 68.17 902.54 68.17C907.331 68.105 912.117 68.5069 916.83 69.37C920.964 70.0491 925.008 71.2 928.88 72.8C932.602 74.2325 936.178 76.0173 939.56 78.13C942.952 80.3663 946.226 82.7762 949.37 85.35L943.17 92.56C938.095 88.0061 932.364 84.2407 926.17 81.39C919.8 78.47 911.88 76.93 902.24 76.93C894.865 76.8501 887.567 78.4362 880.89 81.57C874.514 84.5414 868.87 88.8809 864.36 94.28C859.581 99.7767 855.886 106.129 853.47 113C850.895 120.16 849.615 127.721 849.69 135.33V135.33C849.601 143.331 850.88 151.289 853.47 158.86C855.839 165.747 859.524 172.109 864.32 177.59C869.073 182.896 874.958 187.065 881.54 189.79C888.723 192.834 896.459 194.357 904.26 194.26C908.252 194.283 912.235 193.878 916.14 193.05C919.885 192.246 923.562 191.156 927.14 189.79C930.504 188.449 933.78 186.9 936.95 185.15C939.88 183.26 942.63 181.37 945.04 179.48V142H902.52V133.24H954V183.4C948.14 188.73 940.91 193.02 932.48 197.15C923.189 200.94 913.244 202.866 903.21 202.82L903.23 202.86Z" fill="white"/>
    <path d="M970.89 70.4H1024.26C1031.35 70.2908 1038.41 71.456 1045.09 73.84C1050.71 75.7602 1055.79 78.997 1059.9 83.28C1062.99 86.4219 1065.39 90.1666 1066.96 94.28C1068.71 98.5299 1069.58 103.086 1069.54 107.68V108C1069.59 113.021 1068.59 117.996 1066.61 122.61C1064.76 126.832 1062.06 130.63 1058.69 133.77C1055.19 136.951 1051.17 139.508 1046.81 141.33C1042.1 143.369 1037.11 144.7 1032.01 145.28L1074 201H1062L1021.55 147H980V201H970.53V70.4H970.89ZM1023.23 137.92C1028.24 137.97 1033.23 137.273 1038.03 135.85C1042.28 134.683 1046.25 132.699 1049.74 130.01C1053.11 127.391 1055.82 124.027 1057.68 120.182C1059.53 116.338 1060.46 112.117 1060.41 107.85V107.51C1060.41 98.75 1057.31 91.7 1050.77 86.51C1044.4 81.35 1035.45 78.7733 1023.92 78.78H980.53V137.88L1023.23 137.92Z" fill="white"/>
    <path d="M1144.09 202.86C1135.07 202.99 1126.13 201.111 1117.92 197.36C1110.36 193.847 1103.57 188.887 1097.92 182.76C1092.35 176.505 1087.97 169.282 1085 161.45C1081.97 153.314 1080.4 144.71 1080.35 136.03V135.68C1080.31 126.933 1081.89 118.254 1085 110.08C1087.96 102.158 1092.41 94.8724 1098.09 88.61C1103.69 82.3285 1110.55 77.2961 1118.23 73.84C1126.15 70.06 1134.76 68.34 1144.57 68.34C1153.59 68.2478 1162.52 70.1248 1170.74 73.84C1178.34 77.3568 1185.18 82.3153 1190.88 88.44C1196.45 94.692 1200.83 101.911 1203.8 109.74C1206.82 117.88 1208.39 126.487 1208.44 135.17C1208.62 135.34 1208.62 135.51 1208.44 135.51C1208.48 144.256 1206.9 152.934 1203.8 161.11C1200.84 169.032 1196.39 176.318 1190.71 182.58C1185.08 188.907 1178.15 193.948 1170.4 197.36C1162.11 201.039 1153.13 202.914 1144.06 202.86H1144.09ZM1144.43 194.27C1151.92 194.362 1159.33 192.777 1166.12 189.63C1172.62 186.685 1178.42 182.413 1183.17 177.09C1187.98 171.621 1191.77 165.335 1194.36 158.53C1197.12 151.233 1198.48 143.48 1198.36 135.68V135.34C1198.4 127.533 1197 119.785 1194.22 112.49C1191.67 105.577 1187.81 99.2192 1182.86 93.76C1177.96 88.3146 1171.98 83.96 1165.29 80.9791C1158.6 77.9982 1151.36 76.4577 1144.04 76.4577C1136.72 76.4577 1129.48 77.9982 1122.79 80.9791C1116.1 83.96 1110.12 88.3146 1105.22 93.76C1100.39 99.2218 1096.59 105.509 1094 112.32C1091.24 119.616 1089.88 127.369 1090 135.17V135.51C1089.95 143.316 1091.35 151.064 1094.13 158.36C1096.68 165.273 1100.54 171.631 1105.49 177.09C1110.28 182.441 1116.15 186.715 1122.71 189.63C1129.53 192.697 1136.92 194.279 1144.4 194.27H1144.43Z" fill="white"/>
    <path d="M1274.07 202.68C1266.89 202.786 1259.76 201.503 1253.07 198.9C1246.82 196.579 1241.17 192.881 1236.55 188.08C1231.72 183.016 1228.03 176.987 1225.7 170.39C1223.12 163.39 1221.91 155.44 1221.91 146.16V70.23H1231.38V145.3C1231.38 160.77 1235.17 172.79 1242.74 181.21C1250.31 189.63 1260.99 193.75 1274.59 193.75C1280.51 193.803 1286.4 192.815 1291.98 190.83C1297.02 188.901 1301.56 185.847 1305.24 181.9C1309.17 177.605 1312.11 172.502 1313.85 166.95C1315.91 160.95 1316.77 154.06 1316.77 146.33V70.4H1326.24V145.47C1326.24 154.75 1325.04 163 1322.46 170.04C1320.13 176.649 1316.5 182.724 1311.78 187.91C1307.19 192.802 1301.53 196.566 1295.25 198.91C1288.5 201.529 1281.31 202.813 1274.08 202.69L1274.07 202.68Z" fill="white"/>
    <path d="M1345.69 70.4H1391.83C1398.31 70.2857 1404.76 71.2142 1410.94 73.15C1416.32 74.8384 1421.34 77.5178 1425.74 81.05C1429.88 84.4675 1433.24 88.7467 1435.56 93.59C1437.92 98.8863 1439.09 104.633 1439 110.43V110.77C1439 117.64 1437.79 123.66 1435 128.77C1432.41 133.88 1428.7 138.343 1424.15 141.83C1419.44 145.368 1414.14 148.042 1408.49 149.73C1402.27 151.487 1395.84 152.356 1389.38 152.31H1355V200.75H1345.54L1345.71 70.36L1345.69 70.4ZM1390.11 143.24C1395.59 143.327 1401.04 142.575 1406.29 141.01C1410.75 139.594 1414.93 137.445 1418.68 134.65C1422.12 131.864 1424.89 128.341 1426.78 124.34C1428.81 120.236 1429.81 115.698 1429.7 111.12V110.77C1429.79 106.027 1428.79 101.328 1426.78 97.03C1424.93 93.2019 1422.22 89.852 1418.86 87.24C1415.19 84.5021 1411.04 82.4678 1406.63 81.24C1401.54 79.8043 1396.26 79.1105 1390.97 79.18H1354.97V143.43H1390.1V143.26L1390.11 143.24Z" fill="white"/>
    <path d="M251.42 0.140022H25C21.7186 0.118872 18.4656 0.748071 15.4288 1.99131C12.392 3.23455 9.63159 5.06717 7.30708 7.38331C4.98257 9.69945 3.13999 12.4532 1.88581 15.4855C0.631629 18.5178 -0.00930683 21.7686 8.54865e-06 25.05V250.27C0.023822 256.885 2.66824 263.221 7.35407 267.89C12.0399 272.558 18.3852 275.18 25 275.18H251.42C254.701 275.201 257.954 274.572 260.991 273.329C264.028 272.085 266.788 270.253 269.113 267.937C271.437 265.621 273.28 262.867 274.534 259.834C275.788 256.802 276.429 253.551 276.42 250.27V25.05C276.445 21.7641 275.816 18.5061 274.567 15.4664C273.319 12.4268 271.477 9.66661 269.149 7.34724C266.821 5.02786 264.054 3.19585 261.01 1.95835C257.966 0.720847 254.706 0.102703 251.42 0.140022ZM218.19 240.31H181.52V206.31L168.09 191.54L134.87 240.33H91L141.61 166.8L108.35 118L94.92 132.77V166.77H58.43V35.35H94.92V88.61L140.55 35.35H183.93L133.83 91.87L134.69 93.08L181.52 160.77V108.88H218.19V240.31Z" fill="white"/>
    </svg>